<?xml version="1.0" encoding="UTF-8"?>
<svg width="23px" height="20px" viewBox="0 0 227 202" version="1.1" xmlns="http://www.w3.org/2000/svg" xmlns:xlink="http://www.w3.org/1999/xlink">
    <!-- Generator: Sketch 45.2 (43514) - http://www.bohemiancoding.com/sketch -->
    <title>Group</title>
    <desc>Created with Sketch.</desc>
    <defs></defs>
    <g id="Page-1" stroke="none" stroke-width="1" fill="none" fill-rule="evenodd">
        <g id="Group">
            <path d="M186.025,65.674 C183.619969,64.8490275 181.194532,64.084785 178.751,63.382 C179.156225,61.7354057 179.530956,60.0814561 179.875,58.421 C185.381,31.693 181.781,10.161 169.487,3.073 C157.7,-3.725 138.422,3.363 118.952,20.306 C117.033483,21.9793431 115.157551,23.7008924 113.326,25.469 C112.09946,24.2933132 110.851246,23.1404488 109.582,22.011 C89.177,3.893 68.724,-3.741 56.443,3.368 C44.667,10.185 41.179,30.428 46.136,55.758 C46.6291869,58.266409 47.1860333,60.761881 47.806,63.242 C44.912,64.064 42.117,64.94 39.443,65.872 C15.521,74.212 0.243,87.284 0.243,100.842 C0.243,114.846 16.643,128.892 41.561,137.408 C43.5814818,138.09533 45.6187811,138.732195 47.671,139.318 C47.0043019,141.98994 46.4124042,144.67999 45.896,147.385 C41.17,172.275 44.861,192.038 56.606,198.813 C68.737,205.808 89.097,198.618 108.923,181.288 C110.49,179.918 112.063,178.465 113.638,176.942 C115.621822,178.856059 117.658613,180.714448 119.746,182.515 C138.95,199.04 157.916,205.713 169.651,198.92 C181.771,191.904 185.709,170.673 180.595,144.842 C180.205,142.869 179.75,140.854 179.24,138.802 C180.67,138.38 182.073,137.944 183.442,137.49 C209.346,128.908 226.199,115.033 226.199,100.842 C226.199,87.235 210.429,74.075 186.025,65.674 Z" id="Shape" fill="#494949" fill-rule="nonzero"></path>
            <path d="M180.406,128.328 C179.171,128.737 177.903,129.132 176.611,129.515 C173.751,120.462 169.891,110.835 165.169,100.89 C169.676,91.18 173.386,81.677 176.166,72.682 C178.477,73.352 180.721,74.057 182.883,74.802 C203.793,81.999 216.547,92.642 216.547,100.842 C216.547,109.577 202.772,120.917 180.407,128.328 L180.406,128.328 Z M171.126,146.717 C173.387,158.139 173.71,168.466 172.212,176.539 C170.866,183.793 168.16,188.629 164.814,190.566 C157.693,194.688 142.464,189.33 126.042,175.198 C124.159,173.578 122.262,171.848 120.36,170.018 C126.727,163.054 133.09,154.958 139.3,145.968 C150.224,144.999 160.544,143.414 169.903,141.251 C170.363,143.111 170.773,144.934 171.126,146.717 L171.126,146.717 Z M77.276,189.854 C70.319,192.311 64.778,192.381 61.429,190.45 C54.301,186.34 51.339,170.47 55.38,149.185 C55.86054,146.66956 56.4107516,144.167932 57.03,141.683 C66.285,143.73 76.53,145.203 87.48,146.091 C93.731,154.888 100.278,162.974 106.876,170.055 C105.473749,171.411463 104.038314,172.733197 102.571,174.019 C93.804,181.683 85.019,187.119 77.277,189.854 L77.276,189.854 Z M44.683,128.274 C33.665,124.508 24.566,119.614 18.329,114.274 C12.725,109.474 9.895,104.709 9.895,100.842 C9.895,92.615 22.162,82.12 42.621,74.987 C45.1888992,74.0956173 47.7823434,73.2796011 50.398,72.54 C53.226,81.737 56.935,91.353 61.411,101.077 C56.877,110.946 53.115,120.715 50.261,130.02 C48.3876414,129.483792 46.5277463,128.901616 44.683,128.274 L44.683,128.274 Z M55.609,53.904 C51.362,32.201 54.182,15.83 61.279,11.722 C68.839,7.346 85.554,13.586 103.172,29.229 C104.298,30.229 105.429,31.276 106.562,32.359 C99.998,39.408 93.511,47.433 87.314,56.179 C76.687,57.164 66.514,58.746 57.162,60.865 C56.5859234,58.5577496 56.0680923,56.2363458 55.609,53.903 L55.609,53.904 Z M153.076,77.971 C150.867077,74.15543 148.576212,70.3878893 146.205,66.671 C153.415,67.581 160.322,68.791 166.808,70.272 C164.861,76.513 162.434,83.039 159.576,89.729 C157.487817,85.7667898 155.320718,81.846675 153.076,77.971 L153.076,77.971 Z M113.329,39.257 C117.781,44.08 122.24,49.466 126.626,55.309 C117.729011,54.8885802 108.817177,54.8865779 99.92,55.303 C104.31,49.514 108.807,44.136 113.329,39.257 L113.329,39.257 Z M73.327,78.037 C71.1103861,81.881852 68.9838071,85.7779128 66.949,89.722 C64.138,83.055 61.733,76.5 59.769,70.17 C66.216,68.727 73.091,67.548 80.254,66.653 C77.8562133,70.3929245 75.5465767,74.1886373 73.327,78.037 L73.327,78.037 Z M80.46,135.72 C73.06,134.894 66.081,133.775 59.636,132.372 C61.631,125.93 64.089,119.234 66.96,112.424 C69.0033853,116.371011 71.1393091,120.269422 73.366,124.116 C75.6381114,128.039828 78.0034501,131.908927 80.46,135.72 L80.46,135.72 Z M113.596,163.109 C109.021,158.172 104.458,152.712 100.001,146.839 C104.327,147.009 108.738,147.095 113.221,147.095 C117.827,147.095 122.38,146.992 126.861,146.792 C122.461,152.772 118.018,158.24 113.596,163.109 Z M159.668,112.077 C162.688,118.961 165.234,125.621 167.256,131.954 C160.704,133.449 153.631,134.653 146.178,135.547 C148.566351,131.760714 150.879142,127.927289 153.115,124.049 C155.387885,120.107446 157.57276,116.11579 159.668,112.077 L159.668,112.077 Z M144.753,119.227 C141.3302,125.172956 137.714956,131.006038 133.913,136.717 C127.209,137.196 120.281,137.443 113.221,137.443 C106.19,137.443 99.35,137.224 92.763,136.797 C88.8624363,131.099336 85.1788026,125.256158 81.72,119.28 C78.2773643,113.335549 75.0617139,107.262507 72.08,101.074 C75.05413,94.8836392 78.2600631,88.8073435 81.691,82.858 L81.691,82.86 C85.1208604,76.9093895 88.7754946,71.091196 92.647,65.418 C99.367,64.91 106.257,64.644 113.222,64.644 C120.218,64.644 127.117,64.912 133.835,65.424 C137.667346,71.088466 141.298605,76.8864072 144.722,82.807 C148.164735,88.7431073 151.413453,94.7896383 154.463,100.937 C151.444822,107.146994 148.206436,113.247527 144.754,119.227 L144.753,119.227 Z M164.666,11.435 C172.232,15.799 175.175,33.396 170.421,56.473 C170.109401,57.9763271 169.770679,59.4739046 169.405,60.965 C160.031,58.802 149.851,57.192 139.193,56.192 C132.984,47.351 126.551,39.312 120.093,32.354 C121.785263,30.7225479 123.517798,29.133391 125.289,27.588 C141.971,13.07 157.562,7.338 164.666,11.435 L164.666,11.435 Z" id="Shape" fill="#FFFFFF" fill-rule="nonzero"></path>
            <path d="M180.406,128.328 C179.171,128.737 177.903,129.132 176.611,129.515 C173.751,120.462 169.891,110.835 165.169,100.89 C169.676,91.18 173.386,81.677 176.166,72.682 C178.477,73.352 180.721,74.057 182.883,74.802 C203.793,81.999 216.547,92.642 216.547,100.842 C216.547,109.577 202.772,120.917 180.407,128.328 L180.406,128.328 Z" id="Path" stroke="#494949" fill="#FFFFFF"></path>
            <path d="M171.126,146.717 C173.387,158.139 173.71,168.466 172.212,176.539 C170.866,183.793 168.16,188.629 164.814,190.566 C157.693,194.688 142.464,189.33 126.042,175.198 C124.159,173.578 122.262,171.848 120.36,170.018 C126.727,163.054 133.09,154.958 139.3,145.968 C150.224,144.999 160.544,143.414 169.903,141.251 C170.363,143.111 170.773,144.934 171.126,146.717 L171.126,146.717 Z" id="Path" stroke="#494949" fill="#FFFFFF"></path>
            <path d="M77.276,189.854 C70.319,192.311 64.778,192.381 61.429,190.45 C54.301,186.34 51.339,170.47 55.38,149.185 C55.86054,146.66956 56.4107516,144.167932 57.03,141.683 C66.285,143.73 76.53,145.203 87.48,146.091 C93.731,154.888 100.278,162.974 106.876,170.055 C105.473749,171.411463 104.038314,172.733197 102.571,174.019 C93.804,181.683 85.019,187.119 77.277,189.854 L77.276,189.854 Z" id="Path" stroke="#494949" fill="#FFFFFF"></path>
            <path d="M44.683,128.274 C33.665,124.508 24.566,119.614 18.329,114.274 C12.725,109.474 9.895,104.709 9.895,100.842 C9.895,92.615 22.162,82.12 42.621,74.987 C45.1888992,74.0956173 47.7823434,73.2796011 50.398,72.54 C53.226,81.737 56.935,91.353 61.411,101.077 C56.877,110.946 53.115,120.715 50.261,130.02 C48.3876414,129.483792 46.5277463,128.901616 44.683,128.274 L44.683,128.274 Z" id="Path" stroke="#494949" fill="#FFFFFF"></path>
            <path d="M55.609,53.904 C51.362,32.201 54.182,15.83 61.279,11.722 C68.839,7.346 85.554,13.586 103.172,29.229 C104.298,30.229 105.429,31.276 106.562,32.359 C99.998,39.408 93.511,47.433 87.314,56.179 C76.687,57.164 66.514,58.746 57.162,60.865 C56.5859234,58.5577496 56.0680923,56.2363458 55.609,53.903 L55.609,53.904 Z" id="Path" stroke="#494949" fill="#FFFFFF"></path>
            <path d="M153.076,77.971 C150.867077,74.15543 148.576212,70.3878893 146.205,66.671 C153.415,67.581 160.322,68.791 166.808,70.272 C164.861,76.513 162.434,83.039 159.576,89.729 C157.487817,85.7667898 155.320718,81.846675 153.076,77.971 L153.076,77.971 Z" id="Path" stroke="#494949" fill="#FFFFFF"></path>
            <path d="M113.329,39.257 C117.781,44.08 122.24,49.466 126.626,55.309 C117.729011,54.8885802 108.817177,54.8865779 99.92,55.303 C104.31,49.514 108.807,44.136 113.329,39.257 L113.329,39.257 Z" id="Path" stroke="#494949" fill="#FFFFFF"></path>
            <path d="M73.327,78.037 C71.1103861,81.881852 68.9838071,85.7779128 66.949,89.722 C64.138,83.055 61.733,76.5 59.769,70.17 C66.216,68.727 73.091,67.548 80.254,66.653 C77.8562133,70.3929245 75.5465767,74.1886373 73.327,78.037 L73.327,78.037 Z" id="Path" stroke="#494949" fill="#FFFFFF"></path>
            <path d="M80.46,135.72 C73.06,134.894 66.081,133.775 59.636,132.372 C61.631,125.93 64.089,119.234 66.96,112.424 C69.0033853,116.371011 71.1393091,120.269422 73.366,124.116 C75.6381114,128.039828 78.0034501,131.908927 80.46,135.72 L80.46,135.72 Z" id="Path" stroke="#494949" fill="#FFFFFF"></path>
            <path d="M113.596,163.109 C109.021,158.172 104.458,152.712 100.001,146.839 C104.327,147.009 108.738,147.095 113.221,147.095 C117.827,147.095 122.38,146.992 126.861,146.792 C122.461,152.772 118.018,158.24 113.596,163.109 Z" id="Path" stroke="#494949" fill="#FFFFFF"></path>
            <path d="M159.668,112.077 C162.688,118.961 165.234,125.621 167.256,131.954 C160.704,133.449 153.631,134.653 146.178,135.547 C148.566351,131.760714 150.879142,127.927289 153.115,124.049 C155.387885,120.107446 157.57276,116.11579 159.668,112.077 L159.668,112.077 Z" id="Path" stroke="#494949" fill="#FFFFFF"></path>
            <path d="M144.753,119.227 C141.3302,125.172956 137.714956,131.006038 133.913,136.717 C127.209,137.196 120.281,137.443 113.221,137.443 C106.19,137.443 99.35,137.224 92.763,136.797 C88.8624363,131.099336 85.1788026,125.256158 81.72,119.28 C78.2773643,113.335549 75.0617139,107.262507 72.08,101.074 C75.05413,94.8836392 78.2600631,88.8073435 81.691,82.858 L81.691,82.86 C85.1208604,76.9093895 88.7754946,71.091196 92.647,65.418 C99.367,64.91 106.257,64.644 113.222,64.644 C120.218,64.644 127.117,64.912 133.835,65.424 C137.667346,71.088466 141.298605,76.8864072 144.722,82.807 C148.164735,88.7431073 151.413453,94.7896383 154.463,100.937 C151.444822,107.146994 148.206436,113.247527 144.754,119.227 L144.753,119.227 Z" id="Path" stroke="#494949" fill="#FFFFFF"></path>
            <path d="M164.666,11.435 C172.232,15.799 175.175,33.396 170.421,56.473 C170.109401,57.9763271 169.770679,59.4739046 169.405,60.965 C160.031,58.802 149.851,57.192 139.193,56.192 C132.984,47.351 126.551,39.312 120.093,32.354 C121.785263,30.7225479 123.517798,29.133391 125.289,27.588 C141.971,13.07 157.562,7.338 164.666,11.435 L164.666,11.435 Z" id="Path" stroke="#494949" fill="#FFFFFF"></path>
            <path d="M113.221,80.665 C124.365,80.665 133.398,89.699 133.398,100.842 C133.398,111.986 124.365,121.02 113.221,121.02 C102.078,121.02 93.044,111.986 93.044,100.842 C93.044,89.699 102.078,80.665 113.221,80.665" id="Shape" fill="#494949" fill-rule="nonzero"></path>
        </g>
    </g>
</svg>