<?xml version="1.0" encoding="UTF-8"?>
<svg width="563px" height="501px" viewBox="0 0 563 501" version="1.1" xmlns="http://www.w3.org/2000/svg" xmlns:xlink="http://www.w3.org/1999/xlink">
    <!-- Generator: Sketch 42 (36781) - http://www.bohemiancoding.com/sketch -->
    <title>logo</title>
    <desc>Created with Sketch.</desc>
    <defs></defs>
    <g id="Page-1" stroke="none" stroke-width="1" fill="none" fill-rule="evenodd">
        <g id="logo" fill-rule="nonzero" fill="#000000">
            <circle id="Oval" cx="281.5" cy="249.6" r="50.2"></circle>
            <path d="M281.5,364.6 C211,364.6 149.4,356.3 103.3,340.5 C73.4,330.3 48,316.7 29.9,301.2 C10.7,284.8 0.5,266.9 0.5,249.6 C0.5,216.4 36.9,183.9 98,162.7 C148,145.3 213.2,135.6 281.4,135.6 C348.4,135.6 412.7,145 462.4,162.2 C491.5,172.2 516,185.2 533.4,199.6 C552.3,215.4 562.3,232.7 562.3,249.6 C562.3,284.1 521.6,319 456,340.7 C409.6,356.1 347.6,364.6 281.5,364.6 Z M281.5,159.6 C216.8,159.6 152.8,169 106,185.3 C49.8,204.9 24.6,231.7 24.6,249.6 C24.6,268.2 51.7,297.5 111.1,317.8 C154.7,332.7 213.7,340.6 281.5,340.6 C345.1,340.6 404.4,332.6 448.5,317.9 C510.2,297.4 538.4,268.1 538.4,249.6 C538.4,240.1 531.2,228.9 518.1,218 C503,205.4 481,193.9 454.7,184.8 C407.4,168.6 345.9,159.6 281.5,159.6 Z" id="Shape"></path>
            <path d="M167.6,499.8 C157.4,499.8 148.4,497.6 140.8,493.2 C112.1,476.6 102.1,428.8 114.2,365.3 C124.1,313.2 148.3,252 182.4,192.9 C215.9,134.9 256.1,83.9 295.8,49.4 C319,29.2 342.5,14.4 363.7,6.6 C386.8,-1.9 406.8,-1.9 421.4,6.5 C451.3,23.7 461.2,76.5 447.2,144.1 C437.3,192.1 413.7,250 380.7,307.3 C345.5,368.3 307.5,417.5 270.8,449.6 C247,470.4 222.5,485.6 200.1,493.5 C188.4,497.7 177.4,499.8 167.6,499.8 Z M192.7,198.9 L203.1,204.9 C170.8,260.9 146.9,321 137.7,369.8 C126.6,428.3 137.3,463.5 152.7,472.4 C156.5,474.6 161.5,475.8 167.6,475.8 C187.5,475.8 218.8,463.2 255,431.6 C289.7,401.3 326,354.1 359.9,295.4 C391.7,240.3 414.3,184.9 423.7,139.4 C436.8,75.7 425.5,36.7 409.4,27.4 C401.2,22.7 387.9,23.3 371.9,29.2 C353.4,36 332.5,49.3 311.5,67.6 C273.8,100.4 235.3,149.2 203.1,205 L192.7,198.9 Z" id="Shape"></path>
            <path d="M395.4,500.1 C368.2,500.1 333.7,483.7 297.7,452.7 C257.5,418.1 216.6,366.6 182.4,307.5 L182.4,307.5 C148.8,249.5 124.8,189.2 114.7,137.5 C108.8,107.3 107.7,79.6 111.5,57.3 C115.7,33 125.6,15.7 140.3,7.2 C170.1,-10.1 220.8,7.7 272.4,53.6 C309,86.1 347.4,135.5 380.5,192.7 C415.8,253.7 439.5,311.2 448.9,359 C455,390 456,418.8 451.7,442.2 C447.1,467.1 436.7,484.8 421.7,493.5 C414.2,497.9 405.3,500.1 395.4,500.1 Z M203.2,295.5 C235.6,351.5 275.8,402.2 313.4,434.5 C358.5,473.3 394.3,481.7 409.8,472.7 C425.9,463.4 437.7,425.3 425.5,363.7 C416.5,318.5 393.8,263.5 359.8,204.8 C327.9,149.7 291.2,102.4 256.5,71.6 C207.9,28.4 168.5,18.7 152.4,28 C144.2,32.7 138.1,44.6 135.2,61.4 C131.9,80.8 132.9,105.6 138.3,132.9 C147.9,182 170.9,239.7 203.2,295.5 L203.2,295.5 Z" id="Shape"></path>
        </g>
    </g>
</svg>